<?xml version="1.0" encoding="iso-8859-1"?>
<!-- Generator: Adobe Illustrator 19.0.0, SVG Export Plug-In . SVG Version: 6.00 Build 0)  -->
<svg version="1.1" id="Layer_1" xmlns="http://www.w3.org/2000/svg" xmlns:xlink="http://www.w3.org/1999/xlink" x="0px" y="0px"
	 viewBox="0 0 512 512" style="enable-background:new 0 0 512 512;" xml:space="preserve">
<g>
	<g>
		<path d="M3.429,166.013V512h124.555V166.013H3.429z M100.306,484.321H31.108V193.692h69.197V484.321z"/>
	</g>
</g>
<g>
	<g>
		<path d="M64.389,0C29.71,0,4.531,23.989,4.531,57.047c0,32.504,25.246,57.007,58.737,57.007c17.529,0,32.68-5.73,43.816-16.556
			c10.717-10.434,16.624-24.8,16.61-40.775C122.91,23.327,98.529,0,64.389,0z M87.784,77.658c-5.866,5.703-14.34,8.717-24.517,8.717
			c-18.286,0-31.057-12.056-31.057-29.328c0-17.57,12.934-29.368,32.179-29.368c19.084,0,31.207,11.38,31.626,29.382
			C96.015,65.17,93.095,72.482,87.784,77.658z"/>
	</g>
</g>
<g>
	<g>
		<path d="M379.248,166.074c-39.194,0-64.711,12.147-80.901,24.973l-2.335-25.034H183.343V512h110.716V330.228
			c0-7.393,3.193-22.786,4.801-26.246c11.339-24.463,27.061-24.463,51.699-24.463c27.044,0,50.756,25.544,50.756,55.777V512h107.256
			V316.889C508.571,213.268,441.701,166.074,379.248,166.074z M480.892,484.321h-51.898V335.296
			c0-45.235-36.352-83.456-78.398-83.456c-26.801,0-57.666,0-76.438,40.478c-3.933,8.46-7.778,27.922-7.778,37.91v154.093h-55.358
			V193.692h59.96l4.176,41.518h22.043l4.055-6.558c6.514-10.488,26.824-34.889,77.992-34.889
			c49.127,0,101.644,38.522,101.644,123.126V484.321z"/>
	</g>
</g>
<g>
</g>
<g>
</g>
<g>
</g>
<g>
</g>
<g>
</g>
<g>
</g>
<g>
</g>
<g>
</g>
<g>
</g>
<g>
</g>
<g>
</g>
<g>
</g>
<g>
</g>
<g>
</g>
<g>
</g>
</svg>
